<mxfile host="app.diagrams.net" modified="2023-10-09T02:46:42.988Z" agent="Mozilla/5.0 (Windows NT 10.0; Win64; x64) AppleWebKit/537.36 (KHTML, like Gecko) Chrome/117.0.0.0 Safari/537.36" etag="PetRrlHu-DGsVVN_sg72" version="21.2.9" type="github">
  <diagram id="C5RBs43oDa-KdzZeNtuy" name="Page-1">
    <mxGraphModel dx="1354" dy="578" grid="1" gridSize="10" guides="1" tooltips="1" connect="1" arrows="1" fold="1" page="1" pageScale="1" pageWidth="827" pageHeight="1169" math="0" shadow="0">
      <root>
        <mxCell id="WIyWlLk6GJQsqaUBKTNV-0" />
        <mxCell id="WIyWlLk6GJQsqaUBKTNV-1" parent="WIyWlLk6GJQsqaUBKTNV-0" />
        <mxCell id="WIyWlLk6GJQsqaUBKTNV-5" value="No" style="edgeStyle=orthogonalEdgeStyle;rounded=0;html=1;jettySize=auto;orthogonalLoop=1;fontSize=11;endArrow=block;endFill=0;endSize=8;strokeWidth=1;shadow=0;labelBackgroundColor=none;" parent="WIyWlLk6GJQsqaUBKTNV-1" source="WIyWlLk6GJQsqaUBKTNV-6" edge="1">
          <mxGeometry y="10" relative="1" as="geometry">
            <mxPoint as="offset" />
            <mxPoint x="540" y="150" as="targetPoint" />
          </mxGeometry>
        </mxCell>
        <mxCell id="CEonb_hu1AGd1APKylkn-20" style="edgeStyle=orthogonalEdgeStyle;rounded=0;orthogonalLoop=1;jettySize=auto;html=1;entryX=0.5;entryY=0;entryDx=0;entryDy=0;" edge="1" parent="WIyWlLk6GJQsqaUBKTNV-1" source="WIyWlLk6GJQsqaUBKTNV-6" target="CEonb_hu1AGd1APKylkn-10">
          <mxGeometry relative="1" as="geometry">
            <mxPoint x="240" y="150" as="targetPoint" />
          </mxGeometry>
        </mxCell>
        <mxCell id="WIyWlLk6GJQsqaUBKTNV-6" value="Logged in&amp;nbsp;" style="rhombus;whiteSpace=wrap;html=1;shadow=0;fontFamily=Helvetica;fontSize=12;align=center;strokeWidth=1;spacing=6;spacingTop=-4;" parent="WIyWlLk6GJQsqaUBKTNV-1" vertex="1">
          <mxGeometry x="404" y="120" width="75" height="60" as="geometry" />
        </mxCell>
        <mxCell id="WIyWlLk6GJQsqaUBKTNV-9" value="Yes" style="edgeStyle=orthogonalEdgeStyle;rounded=0;html=1;jettySize=auto;orthogonalLoop=1;fontSize=11;endArrow=block;endFill=0;endSize=8;strokeWidth=1;shadow=0;labelBackgroundColor=none;exitX=1;exitY=0.5;exitDx=0;exitDy=0;" parent="WIyWlLk6GJQsqaUBKTNV-1" source="CEonb_hu1AGd1APKylkn-10" edge="1">
          <mxGeometry y="10" relative="1" as="geometry">
            <mxPoint as="offset" />
            <mxPoint x="330" y="200" as="sourcePoint" />
            <mxPoint x="380" y="221" as="targetPoint" />
            <Array as="points">
              <mxPoint x="380" y="195" />
            </Array>
          </mxGeometry>
        </mxCell>
        <mxCell id="CEonb_hu1AGd1APKylkn-15" value="" style="edgeStyle=orthogonalEdgeStyle;rounded=0;orthogonalLoop=1;jettySize=auto;html=1;" edge="1" parent="WIyWlLk6GJQsqaUBKTNV-1" source="WIyWlLk6GJQsqaUBKTNV-11" target="CEonb_hu1AGd1APKylkn-14">
          <mxGeometry relative="1" as="geometry" />
        </mxCell>
        <mxCell id="WIyWlLk6GJQsqaUBKTNV-11" value="Display User Dashboard" style="rounded=1;whiteSpace=wrap;html=1;fontSize=12;glass=0;strokeWidth=1;shadow=0;" parent="WIyWlLk6GJQsqaUBKTNV-1" vertex="1">
          <mxGeometry x="55" y="221" width="95" height="29" as="geometry" />
        </mxCell>
        <mxCell id="CEonb_hu1AGd1APKylkn-7" value="" style="edgeStyle=orthogonalEdgeStyle;rounded=0;orthogonalLoop=1;jettySize=auto;html=1;" edge="1" parent="WIyWlLk6GJQsqaUBKTNV-1" source="CEonb_hu1AGd1APKylkn-0" target="CEonb_hu1AGd1APKylkn-5">
          <mxGeometry relative="1" as="geometry" />
        </mxCell>
        <mxCell id="CEonb_hu1AGd1APKylkn-0" value="START" style="ellipse;whiteSpace=wrap;html=1;" vertex="1" parent="WIyWlLk6GJQsqaUBKTNV-1">
          <mxGeometry x="414" y="24" width="55" height="30" as="geometry" />
        </mxCell>
        <mxCell id="CEonb_hu1AGd1APKylkn-24" value="" style="edgeStyle=orthogonalEdgeStyle;rounded=0;orthogonalLoop=1;jettySize=auto;html=1;" edge="1" parent="WIyWlLk6GJQsqaUBKTNV-1" source="CEonb_hu1AGd1APKylkn-3" target="CEonb_hu1AGd1APKylkn-22">
          <mxGeometry relative="1" as="geometry" />
        </mxCell>
        <mxCell id="CEonb_hu1AGd1APKylkn-3" value="Personal profile" style="rounded=1;whiteSpace=wrap;html=1;" vertex="1" parent="WIyWlLk6GJQsqaUBKTNV-1">
          <mxGeometry x="7" y="310" width="60" height="30" as="geometry" />
        </mxCell>
        <mxCell id="CEonb_hu1AGd1APKylkn-8" value="" style="edgeStyle=orthogonalEdgeStyle;rounded=0;orthogonalLoop=1;jettySize=auto;html=1;" edge="1" parent="WIyWlLk6GJQsqaUBKTNV-1" source="CEonb_hu1AGd1APKylkn-5" target="WIyWlLk6GJQsqaUBKTNV-6">
          <mxGeometry relative="1" as="geometry" />
        </mxCell>
        <mxCell id="CEonb_hu1AGd1APKylkn-5" value="User Visits Blog Platform" style="rounded=1;whiteSpace=wrap;html=1;" vertex="1" parent="WIyWlLk6GJQsqaUBKTNV-1">
          <mxGeometry x="401.5" y="74" width="80" height="30" as="geometry" />
        </mxCell>
        <mxCell id="CEonb_hu1AGd1APKylkn-11" value="" style="edgeStyle=orthogonalEdgeStyle;rounded=0;orthogonalLoop=1;jettySize=auto;html=1;" edge="1" parent="WIyWlLk6GJQsqaUBKTNV-1" source="CEonb_hu1AGd1APKylkn-10" target="WIyWlLk6GJQsqaUBKTNV-11">
          <mxGeometry relative="1" as="geometry" />
        </mxCell>
        <mxCell id="CEonb_hu1AGd1APKylkn-12" value="No" style="edgeLabel;html=1;align=center;verticalAlign=middle;resizable=0;points=[];" vertex="1" connectable="0" parent="CEonb_hu1AGd1APKylkn-11">
          <mxGeometry x="-0.0435" relative="1" as="geometry">
            <mxPoint as="offset" />
          </mxGeometry>
        </mxCell>
        <mxCell id="CEonb_hu1AGd1APKylkn-10" value="Is User Admin?" style="shape=hexagon;perimeter=hexagonPerimeter2;whiteSpace=wrap;html=1;fixedSize=1;" vertex="1" parent="WIyWlLk6GJQsqaUBKTNV-1">
          <mxGeometry x="208" y="170" width="76" height="50" as="geometry" />
        </mxCell>
        <mxCell id="CEonb_hu1AGd1APKylkn-39" style="edgeStyle=orthogonalEdgeStyle;rounded=0;orthogonalLoop=1;jettySize=auto;html=1;exitX=0.5;exitY=1;exitDx=0;exitDy=0;entryX=0.5;entryY=0;entryDx=0;entryDy=0;" edge="1" parent="WIyWlLk6GJQsqaUBKTNV-1" source="CEonb_hu1AGd1APKylkn-13" target="CEonb_hu1AGd1APKylkn-38">
          <mxGeometry relative="1" as="geometry">
            <Array as="points">
              <mxPoint x="165" y="470" />
              <mxPoint x="165" y="470" />
            </Array>
          </mxGeometry>
        </mxCell>
        <mxCell id="CEonb_hu1AGd1APKylkn-44" value="Yes" style="edgeLabel;html=1;align=center;verticalAlign=middle;resizable=0;points=[];" vertex="1" connectable="0" parent="CEonb_hu1AGd1APKylkn-39">
          <mxGeometry x="-0.4518" y="-3" relative="1" as="geometry">
            <mxPoint as="offset" />
          </mxGeometry>
        </mxCell>
        <mxCell id="CEonb_hu1AGd1APKylkn-41" style="edgeStyle=orthogonalEdgeStyle;rounded=0;orthogonalLoop=1;jettySize=auto;html=1;exitX=1;exitY=0.5;exitDx=0;exitDy=0;entryX=0;entryY=0.5;entryDx=0;entryDy=0;" edge="1" parent="WIyWlLk6GJQsqaUBKTNV-1" source="CEonb_hu1AGd1APKylkn-13" target="CEonb_hu1AGd1APKylkn-40">
          <mxGeometry relative="1" as="geometry" />
        </mxCell>
        <mxCell id="CEonb_hu1AGd1APKylkn-42" value="No" style="edgeLabel;html=1;align=center;verticalAlign=middle;resizable=0;points=[];" vertex="1" connectable="0" parent="CEonb_hu1AGd1APKylkn-41">
          <mxGeometry x="-0.3964" y="3" relative="1" as="geometry">
            <mxPoint as="offset" />
          </mxGeometry>
        </mxCell>
        <mxCell id="CEonb_hu1AGd1APKylkn-13" value="&lt;font style=&quot;font-size: 11px;&quot;&gt;publish?&lt;/font&gt;" style="rhombus;whiteSpace=wrap;html=1;" vertex="1" parent="WIyWlLk6GJQsqaUBKTNV-1">
          <mxGeometry x="136.63" y="406" width="56.98" height="44" as="geometry" />
        </mxCell>
        <mxCell id="CEonb_hu1AGd1APKylkn-18" value="" style="edgeStyle=orthogonalEdgeStyle;rounded=0;orthogonalLoop=1;jettySize=auto;html=1;" edge="1" parent="WIyWlLk6GJQsqaUBKTNV-1" source="CEonb_hu1AGd1APKylkn-14" target="CEonb_hu1AGd1APKylkn-17">
          <mxGeometry relative="1" as="geometry" />
        </mxCell>
        <mxCell id="CEonb_hu1AGd1APKylkn-19" value="" style="edgeStyle=orthogonalEdgeStyle;rounded=0;orthogonalLoop=1;jettySize=auto;html=1;" edge="1" parent="WIyWlLk6GJQsqaUBKTNV-1" source="CEonb_hu1AGd1APKylkn-14" target="CEonb_hu1AGd1APKylkn-3">
          <mxGeometry relative="1" as="geometry" />
        </mxCell>
        <mxCell id="CEonb_hu1AGd1APKylkn-21" value="" style="edgeStyle=orthogonalEdgeStyle;rounded=0;orthogonalLoop=1;jettySize=auto;html=1;" edge="1" parent="WIyWlLk6GJQsqaUBKTNV-1" source="CEonb_hu1AGd1APKylkn-14" target="CEonb_hu1AGd1APKylkn-16">
          <mxGeometry relative="1" as="geometry" />
        </mxCell>
        <mxCell id="CEonb_hu1AGd1APKylkn-14" value="" style="rhombus;whiteSpace=wrap;html=1;" vertex="1" parent="WIyWlLk6GJQsqaUBKTNV-1">
          <mxGeometry x="85" y="268" width="35" height="30" as="geometry" />
        </mxCell>
        <mxCell id="CEonb_hu1AGd1APKylkn-34" style="edgeStyle=orthogonalEdgeStyle;rounded=0;orthogonalLoop=1;jettySize=auto;html=1;exitX=0.5;exitY=1;exitDx=0;exitDy=0;entryX=0.5;entryY=0;entryDx=0;entryDy=0;" edge="1" parent="WIyWlLk6GJQsqaUBKTNV-1" source="CEonb_hu1AGd1APKylkn-16" target="CEonb_hu1AGd1APKylkn-25">
          <mxGeometry relative="1" as="geometry" />
        </mxCell>
        <mxCell id="CEonb_hu1AGd1APKylkn-16" value="Recent Posts" style="rounded=1;whiteSpace=wrap;html=1;" vertex="1" parent="WIyWlLk6GJQsqaUBKTNV-1">
          <mxGeometry x="72.5" y="309" width="60" height="30" as="geometry" />
        </mxCell>
        <mxCell id="CEonb_hu1AGd1APKylkn-27" value="" style="edgeStyle=orthogonalEdgeStyle;rounded=0;orthogonalLoop=1;jettySize=auto;html=1;" edge="1" parent="WIyWlLk6GJQsqaUBKTNV-1" source="CEonb_hu1AGd1APKylkn-17" target="CEonb_hu1AGd1APKylkn-26">
          <mxGeometry relative="1" as="geometry" />
        </mxCell>
        <mxCell id="CEonb_hu1AGd1APKylkn-17" value="Individual Posts" style="rounded=1;whiteSpace=wrap;html=1;" vertex="1" parent="WIyWlLk6GJQsqaUBKTNV-1">
          <mxGeometry x="139" y="310" width="60" height="30" as="geometry" />
        </mxCell>
        <mxCell id="CEonb_hu1AGd1APKylkn-58" value="" style="edgeStyle=orthogonalEdgeStyle;rounded=0;orthogonalLoop=1;jettySize=auto;html=1;" edge="1" parent="WIyWlLk6GJQsqaUBKTNV-1" source="CEonb_hu1AGd1APKylkn-22" target="CEonb_hu1AGd1APKylkn-56">
          <mxGeometry relative="1" as="geometry">
            <Array as="points">
              <mxPoint x="37" y="455" />
            </Array>
          </mxGeometry>
        </mxCell>
        <mxCell id="CEonb_hu1AGd1APKylkn-22" value="Update profile" style="rounded=1;whiteSpace=wrap;html=1;" vertex="1" parent="WIyWlLk6GJQsqaUBKTNV-1">
          <mxGeometry x="7" y="360" width="60" height="30" as="geometry" />
        </mxCell>
        <mxCell id="CEonb_hu1AGd1APKylkn-59" value="" style="edgeStyle=orthogonalEdgeStyle;rounded=0;orthogonalLoop=1;jettySize=auto;html=1;" edge="1" parent="WIyWlLk6GJQsqaUBKTNV-1" source="CEonb_hu1AGd1APKylkn-25" target="CEonb_hu1AGd1APKylkn-56">
          <mxGeometry relative="1" as="geometry">
            <Array as="points">
              <mxPoint x="103" y="455" />
            </Array>
          </mxGeometry>
        </mxCell>
        <mxCell id="CEonb_hu1AGd1APKylkn-25" value="Comment" style="rounded=1;whiteSpace=wrap;html=1;" vertex="1" parent="WIyWlLk6GJQsqaUBKTNV-1">
          <mxGeometry x="72.5" y="360" width="60" height="30" as="geometry" />
        </mxCell>
        <mxCell id="CEonb_hu1AGd1APKylkn-36" style="edgeStyle=orthogonalEdgeStyle;rounded=0;orthogonalLoop=1;jettySize=auto;html=1;exitX=0.5;exitY=1;exitDx=0;exitDy=0;entryX=0.5;entryY=0;entryDx=0;entryDy=0;" edge="1" parent="WIyWlLk6GJQsqaUBKTNV-1" source="CEonb_hu1AGd1APKylkn-26" target="CEonb_hu1AGd1APKylkn-13">
          <mxGeometry relative="1" as="geometry" />
        </mxCell>
        <mxCell id="CEonb_hu1AGd1APKylkn-26" value="Create new post" style="rounded=1;whiteSpace=wrap;html=1;" vertex="1" parent="WIyWlLk6GJQsqaUBKTNV-1">
          <mxGeometry x="139" y="360" width="60" height="30" as="geometry" />
        </mxCell>
        <mxCell id="CEonb_hu1AGd1APKylkn-53" style="edgeStyle=orthogonalEdgeStyle;rounded=0;orthogonalLoop=1;jettySize=auto;html=1;exitX=0.5;exitY=1;exitDx=0;exitDy=0;entryX=0.5;entryY=0;entryDx=0;entryDy=0;" edge="1" parent="WIyWlLk6GJQsqaUBKTNV-1" source="CEonb_hu1AGd1APKylkn-37" target="CEonb_hu1AGd1APKylkn-47">
          <mxGeometry relative="1" as="geometry" />
        </mxCell>
        <mxCell id="CEonb_hu1AGd1APKylkn-37" value="" style="rhombus;whiteSpace=wrap;html=1;" vertex="1" parent="WIyWlLk6GJQsqaUBKTNV-1">
          <mxGeometry x="239" y="479" width="26" height="30" as="geometry" />
        </mxCell>
        <mxCell id="CEonb_hu1AGd1APKylkn-46" style="edgeStyle=orthogonalEdgeStyle;rounded=0;orthogonalLoop=1;jettySize=auto;html=1;exitX=1;exitY=0.5;exitDx=0;exitDy=0;entryX=0;entryY=0.5;entryDx=0;entryDy=0;" edge="1" parent="WIyWlLk6GJQsqaUBKTNV-1" source="CEonb_hu1AGd1APKylkn-38" target="CEonb_hu1AGd1APKylkn-37">
          <mxGeometry relative="1" as="geometry" />
        </mxCell>
        <mxCell id="CEonb_hu1AGd1APKylkn-38" value="Publish" style="rounded=1;whiteSpace=wrap;html=1;" vertex="1" parent="WIyWlLk6GJQsqaUBKTNV-1">
          <mxGeometry x="135.12" y="479" width="60" height="30" as="geometry" />
        </mxCell>
        <mxCell id="CEonb_hu1AGd1APKylkn-45" style="edgeStyle=orthogonalEdgeStyle;rounded=0;orthogonalLoop=1;jettySize=auto;html=1;exitX=0.5;exitY=1;exitDx=0;exitDy=0;entryX=0.5;entryY=0;entryDx=0;entryDy=0;" edge="1" parent="WIyWlLk6GJQsqaUBKTNV-1" source="CEonb_hu1AGd1APKylkn-40" target="CEonb_hu1AGd1APKylkn-37">
          <mxGeometry relative="1" as="geometry" />
        </mxCell>
        <mxCell id="CEonb_hu1AGd1APKylkn-40" value="Save as Draft" style="rounded=1;whiteSpace=wrap;html=1;" vertex="1" parent="WIyWlLk6GJQsqaUBKTNV-1">
          <mxGeometry x="222" y="413" width="60" height="30" as="geometry" />
        </mxCell>
        <mxCell id="CEonb_hu1AGd1APKylkn-54" style="edgeStyle=orthogonalEdgeStyle;rounded=0;orthogonalLoop=1;jettySize=auto;html=1;exitX=0.5;exitY=1;exitDx=0;exitDy=0;entryX=0.5;entryY=0;entryDx=0;entryDy=0;" edge="1" parent="WIyWlLk6GJQsqaUBKTNV-1" source="CEonb_hu1AGd1APKylkn-47" target="CEonb_hu1AGd1APKylkn-48">
          <mxGeometry relative="1" as="geometry" />
        </mxCell>
        <mxCell id="CEonb_hu1AGd1APKylkn-47" value="Edit" style="rounded=1;whiteSpace=wrap;html=1;" vertex="1" parent="WIyWlLk6GJQsqaUBKTNV-1">
          <mxGeometry x="222" y="524" width="60" height="30" as="geometry" />
        </mxCell>
        <mxCell id="CEonb_hu1AGd1APKylkn-62" style="edgeStyle=orthogonalEdgeStyle;rounded=0;orthogonalLoop=1;jettySize=auto;html=1;exitX=0;exitY=0.5;exitDx=0;exitDy=0;entryX=1;entryY=0.5;entryDx=0;entryDy=0;" edge="1" parent="WIyWlLk6GJQsqaUBKTNV-1" source="CEonb_hu1AGd1APKylkn-48" target="CEonb_hu1AGd1APKylkn-60">
          <mxGeometry relative="1" as="geometry" />
        </mxCell>
        <mxCell id="CEonb_hu1AGd1APKylkn-48" value="Delete" style="rounded=1;whiteSpace=wrap;html=1;" vertex="1" parent="WIyWlLk6GJQsqaUBKTNV-1">
          <mxGeometry x="222" y="567.5" width="60" height="30" as="geometry" />
        </mxCell>
        <mxCell id="CEonb_hu1AGd1APKylkn-177" style="edgeStyle=orthogonalEdgeStyle;rounded=0;orthogonalLoop=1;jettySize=auto;html=1;exitX=1;exitY=0.5;exitDx=0;exitDy=0;entryX=0;entryY=0.5;entryDx=0;entryDy=0;" edge="1" parent="WIyWlLk6GJQsqaUBKTNV-1" source="CEonb_hu1AGd1APKylkn-49" target="CEonb_hu1AGd1APKylkn-174">
          <mxGeometry relative="1" as="geometry" />
        </mxCell>
        <mxCell id="CEonb_hu1AGd1APKylkn-49" value="Log out" style="rounded=1;whiteSpace=wrap;html=1;" vertex="1" parent="WIyWlLk6GJQsqaUBKTNV-1">
          <mxGeometry x="38" y="610" width="60" height="30" as="geometry" />
        </mxCell>
        <mxCell id="CEonb_hu1AGd1APKylkn-70" style="edgeStyle=orthogonalEdgeStyle;rounded=0;orthogonalLoop=1;jettySize=auto;html=1;exitX=0.5;exitY=1;exitDx=0;exitDy=0;entryX=0.5;entryY=0;entryDx=0;entryDy=0;" edge="1" parent="WIyWlLk6GJQsqaUBKTNV-1" source="CEonb_hu1AGd1APKylkn-51" target="CEonb_hu1AGd1APKylkn-65">
          <mxGeometry relative="1" as="geometry" />
        </mxCell>
        <mxCell id="CEonb_hu1AGd1APKylkn-51" value="Display Admin Dashboard" style="rounded=1;whiteSpace=wrap;html=1;fontSize=12;glass=0;strokeWidth=1;shadow=0;" vertex="1" parent="WIyWlLk6GJQsqaUBKTNV-1">
          <mxGeometry x="340" y="221" width="95" height="29" as="geometry" />
        </mxCell>
        <mxCell id="CEonb_hu1AGd1APKylkn-63" style="edgeStyle=orthogonalEdgeStyle;rounded=0;orthogonalLoop=1;jettySize=auto;html=1;exitX=0.5;exitY=1;exitDx=0;exitDy=0;entryX=0.5;entryY=0;entryDx=0;entryDy=0;" edge="1" parent="WIyWlLk6GJQsqaUBKTNV-1" source="CEonb_hu1AGd1APKylkn-56" target="CEonb_hu1AGd1APKylkn-60">
          <mxGeometry relative="1" as="geometry" />
        </mxCell>
        <mxCell id="CEonb_hu1AGd1APKylkn-56" value="" style="rhombus;whiteSpace=wrap;html=1;" vertex="1" parent="WIyWlLk6GJQsqaUBKTNV-1">
          <mxGeometry x="55" y="440" width="26" height="30" as="geometry" />
        </mxCell>
        <mxCell id="CEonb_hu1AGd1APKylkn-64" style="edgeStyle=orthogonalEdgeStyle;rounded=0;orthogonalLoop=1;jettySize=auto;html=1;exitX=0.5;exitY=1;exitDx=0;exitDy=0;entryX=0.5;entryY=0;entryDx=0;entryDy=0;" edge="1" parent="WIyWlLk6GJQsqaUBKTNV-1" source="CEonb_hu1AGd1APKylkn-60" target="CEonb_hu1AGd1APKylkn-49">
          <mxGeometry relative="1" as="geometry" />
        </mxCell>
        <mxCell id="CEonb_hu1AGd1APKylkn-60" value="" style="rhombus;whiteSpace=wrap;html=1;" vertex="1" parent="WIyWlLk6GJQsqaUBKTNV-1">
          <mxGeometry x="55" y="567.5" width="26" height="30" as="geometry" />
        </mxCell>
        <mxCell id="CEonb_hu1AGd1APKylkn-71" style="edgeStyle=orthogonalEdgeStyle;rounded=0;orthogonalLoop=1;jettySize=auto;html=1;exitX=0.5;exitY=1;exitDx=0;exitDy=0;entryX=0.5;entryY=0;entryDx=0;entryDy=0;" edge="1" parent="WIyWlLk6GJQsqaUBKTNV-1" source="CEonb_hu1AGd1APKylkn-65" target="CEonb_hu1AGd1APKylkn-66">
          <mxGeometry relative="1" as="geometry" />
        </mxCell>
        <mxCell id="CEonb_hu1AGd1APKylkn-65" value="Manage User" style="rounded=1;whiteSpace=wrap;html=1;" vertex="1" parent="WIyWlLk6GJQsqaUBKTNV-1">
          <mxGeometry x="357.5" y="279" width="60" height="30" as="geometry" />
        </mxCell>
        <mxCell id="CEonb_hu1AGd1APKylkn-72" style="edgeStyle=orthogonalEdgeStyle;rounded=0;orthogonalLoop=1;jettySize=auto;html=1;exitX=0.5;exitY=1;exitDx=0;exitDy=0;entryX=0.5;entryY=0;entryDx=0;entryDy=0;" edge="1" parent="WIyWlLk6GJQsqaUBKTNV-1" source="CEonb_hu1AGd1APKylkn-66" target="CEonb_hu1AGd1APKylkn-69">
          <mxGeometry relative="1" as="geometry" />
        </mxCell>
        <mxCell id="CEonb_hu1AGd1APKylkn-66" value="Manage Blog post" style="rounded=1;whiteSpace=wrap;html=1;" vertex="1" parent="WIyWlLk6GJQsqaUBKTNV-1">
          <mxGeometry x="357.5" y="330" width="60" height="30" as="geometry" />
        </mxCell>
        <mxCell id="CEonb_hu1AGd1APKylkn-176" style="edgeStyle=orthogonalEdgeStyle;rounded=0;orthogonalLoop=1;jettySize=auto;html=1;exitX=0.5;exitY=1;exitDx=0;exitDy=0;entryX=1;entryY=0.5;entryDx=0;entryDy=0;" edge="1" parent="WIyWlLk6GJQsqaUBKTNV-1" source="CEonb_hu1AGd1APKylkn-68" target="CEonb_hu1AGd1APKylkn-174">
          <mxGeometry relative="1" as="geometry">
            <mxPoint x="310" y="620" as="targetPoint" />
            <Array as="points">
              <mxPoint x="388" y="540" />
              <mxPoint x="311" y="540" />
              <mxPoint x="311" y="625" />
            </Array>
          </mxGeometry>
        </mxCell>
        <mxCell id="CEonb_hu1AGd1APKylkn-68" value="Log out" style="rounded=1;whiteSpace=wrap;html=1;" vertex="1" parent="WIyWlLk6GJQsqaUBKTNV-1">
          <mxGeometry x="357.5" y="470" width="60" height="30" as="geometry" />
        </mxCell>
        <mxCell id="CEonb_hu1AGd1APKylkn-73" style="edgeStyle=orthogonalEdgeStyle;rounded=0;orthogonalLoop=1;jettySize=auto;html=1;exitX=0.5;exitY=1;exitDx=0;exitDy=0;entryX=0.5;entryY=0;entryDx=0;entryDy=0;" edge="1" parent="WIyWlLk6GJQsqaUBKTNV-1" source="CEonb_hu1AGd1APKylkn-69" target="CEonb_hu1AGd1APKylkn-68">
          <mxGeometry relative="1" as="geometry" />
        </mxCell>
        <mxCell id="CEonb_hu1AGd1APKylkn-69" value="Access &amp;amp; process requests&amp;nbsp;" style="rounded=1;whiteSpace=wrap;html=1;" vertex="1" parent="WIyWlLk6GJQsqaUBKTNV-1">
          <mxGeometry x="337.5" y="390" width="100" height="40" as="geometry" />
        </mxCell>
        <mxCell id="CEonb_hu1AGd1APKylkn-137" style="edgeStyle=orthogonalEdgeStyle;rounded=0;orthogonalLoop=1;jettySize=auto;html=1;exitX=0.5;exitY=1;exitDx=0;exitDy=0;entryX=0.5;entryY=0;entryDx=0;entryDy=0;" edge="1" parent="WIyWlLk6GJQsqaUBKTNV-1" source="CEonb_hu1AGd1APKylkn-74" target="CEonb_hu1AGd1APKylkn-76">
          <mxGeometry relative="1" as="geometry" />
        </mxCell>
        <mxCell id="CEonb_hu1AGd1APKylkn-74" value="User Read" style="rounded=1;whiteSpace=wrap;html=1;fontSize=12;glass=0;strokeWidth=1;shadow=0;" vertex="1" parent="WIyWlLk6GJQsqaUBKTNV-1">
          <mxGeometry x="540" y="189" width="95" height="29" as="geometry" />
        </mxCell>
        <mxCell id="CEonb_hu1AGd1APKylkn-136" style="edgeStyle=orthogonalEdgeStyle;rounded=0;orthogonalLoop=1;jettySize=auto;html=1;exitX=0.5;exitY=1;exitDx=0;exitDy=0;entryX=0.5;entryY=0;entryDx=0;entryDy=0;" edge="1" parent="WIyWlLk6GJQsqaUBKTNV-1" source="CEonb_hu1AGd1APKylkn-75" target="CEonb_hu1AGd1APKylkn-74">
          <mxGeometry relative="1" as="geometry" />
        </mxCell>
        <mxCell id="CEonb_hu1AGd1APKylkn-75" value="Display Blog Posts" style="rounded=1;whiteSpace=wrap;html=1;fontSize=12;glass=0;strokeWidth=1;shadow=0;" vertex="1" parent="WIyWlLk6GJQsqaUBKTNV-1">
          <mxGeometry x="540" y="135.5" width="95" height="29" as="geometry" />
        </mxCell>
        <mxCell id="CEonb_hu1AGd1APKylkn-78" value="" style="edgeStyle=orthogonalEdgeStyle;rounded=0;orthogonalLoop=1;jettySize=auto;html=1;" edge="1" parent="WIyWlLk6GJQsqaUBKTNV-1" source="CEonb_hu1AGd1APKylkn-76" target="CEonb_hu1AGd1APKylkn-77">
          <mxGeometry relative="1" as="geometry" />
        </mxCell>
        <mxCell id="CEonb_hu1AGd1APKylkn-81" value="Yes" style="edgeLabel;html=1;align=center;verticalAlign=middle;resizable=0;points=[];" vertex="1" connectable="0" parent="CEonb_hu1AGd1APKylkn-78">
          <mxGeometry x="-0.3184" y="-10" relative="1" as="geometry">
            <mxPoint as="offset" />
          </mxGeometry>
        </mxCell>
        <mxCell id="CEonb_hu1AGd1APKylkn-109" style="edgeStyle=orthogonalEdgeStyle;rounded=0;orthogonalLoop=1;jettySize=auto;html=1;exitX=0;exitY=0.5;exitDx=0;exitDy=0;entryX=0.5;entryY=0;entryDx=0;entryDy=0;" edge="1" parent="WIyWlLk6GJQsqaUBKTNV-1" source="CEonb_hu1AGd1APKylkn-76" target="CEonb_hu1AGd1APKylkn-108">
          <mxGeometry relative="1" as="geometry" />
        </mxCell>
        <mxCell id="CEonb_hu1AGd1APKylkn-76" value="Comment ?&lt;br&gt;New Post ?" style="shape=hexagon;perimeter=hexagonPerimeter2;whiteSpace=wrap;html=1;fixedSize=1;" vertex="1" parent="WIyWlLk6GJQsqaUBKTNV-1">
          <mxGeometry x="549.5" y="240" width="80.5" height="40" as="geometry" />
        </mxCell>
        <mxCell id="CEonb_hu1AGd1APKylkn-83" style="edgeStyle=orthogonalEdgeStyle;rounded=0;orthogonalLoop=1;jettySize=auto;html=1;exitX=1;exitY=0.5;exitDx=0;exitDy=0;" edge="1" parent="WIyWlLk6GJQsqaUBKTNV-1" source="CEonb_hu1AGd1APKylkn-77" target="CEonb_hu1AGd1APKylkn-80">
          <mxGeometry relative="1" as="geometry" />
        </mxCell>
        <mxCell id="CEonb_hu1AGd1APKylkn-77" value="Registered ?" style="shape=hexagon;perimeter=hexagonPerimeter2;whiteSpace=wrap;html=1;fixedSize=1;" vertex="1" parent="WIyWlLk6GJQsqaUBKTNV-1">
          <mxGeometry x="680" y="290" width="80.5" height="40" as="geometry" />
        </mxCell>
        <mxCell id="CEonb_hu1AGd1APKylkn-106" style="edgeStyle=orthogonalEdgeStyle;rounded=0;orthogonalLoop=1;jettySize=auto;html=1;exitX=0.5;exitY=1;exitDx=0;exitDy=0;entryX=1;entryY=0.5;entryDx=0;entryDy=0;" edge="1" parent="WIyWlLk6GJQsqaUBKTNV-1" source="CEonb_hu1AGd1APKylkn-80" target="CEonb_hu1AGd1APKylkn-101">
          <mxGeometry relative="1" as="geometry">
            <mxPoint x="790" y="590" as="targetPoint" />
          </mxGeometry>
        </mxCell>
        <mxCell id="CEonb_hu1AGd1APKylkn-80" value="Prompt to Register" style="rounded=1;whiteSpace=wrap;html=1;" vertex="1" parent="WIyWlLk6GJQsqaUBKTNV-1">
          <mxGeometry x="760" y="340" width="60" height="30" as="geometry" />
        </mxCell>
        <mxCell id="CEonb_hu1AGd1APKylkn-85" value="No" style="text;html=1;align=center;verticalAlign=middle;resizable=0;points=[];autosize=1;strokeColor=none;fillColor=none;" vertex="1" parent="WIyWlLk6GJQsqaUBKTNV-1">
          <mxGeometry x="760" y="288" width="40" height="30" as="geometry" />
        </mxCell>
        <mxCell id="CEonb_hu1AGd1APKylkn-86" value="Yes" style="text;html=1;align=center;verticalAlign=middle;resizable=0;points=[];autosize=1;strokeColor=none;fillColor=none;" vertex="1" parent="WIyWlLk6GJQsqaUBKTNV-1">
          <mxGeometry x="625" y="298" width="40" height="30" as="geometry" />
        </mxCell>
        <mxCell id="CEonb_hu1AGd1APKylkn-88" value="" style="edgeStyle=orthogonalEdgeStyle;rounded=0;orthogonalLoop=1;jettySize=auto;html=1;exitX=0;exitY=0.5;exitDx=0;exitDy=0;entryX=0.5;entryY=0;entryDx=0;entryDy=0;" edge="1" parent="WIyWlLk6GJQsqaUBKTNV-1" source="CEonb_hu1AGd1APKylkn-77" target="CEonb_hu1AGd1APKylkn-87">
          <mxGeometry relative="1" as="geometry">
            <mxPoint x="680" y="310" as="sourcePoint" />
            <mxPoint x="660" y="340" as="targetPoint" />
          </mxGeometry>
        </mxCell>
        <mxCell id="CEonb_hu1AGd1APKylkn-93" style="edgeStyle=orthogonalEdgeStyle;rounded=0;orthogonalLoop=1;jettySize=auto;html=1;exitX=0.5;exitY=1;exitDx=0;exitDy=0;entryX=0.5;entryY=0;entryDx=0;entryDy=0;" edge="1" parent="WIyWlLk6GJQsqaUBKTNV-1" source="CEonb_hu1AGd1APKylkn-87" target="CEonb_hu1AGd1APKylkn-89">
          <mxGeometry relative="1" as="geometry" />
        </mxCell>
        <mxCell id="CEonb_hu1AGd1APKylkn-87" value="Prompt user to login" style="rounded=1;whiteSpace=wrap;html=1;fontSize=12;glass=0;strokeWidth=1;shadow=0;" vertex="1" parent="WIyWlLk6GJQsqaUBKTNV-1">
          <mxGeometry x="620" y="340" width="95" height="29" as="geometry" />
        </mxCell>
        <mxCell id="CEonb_hu1AGd1APKylkn-94" style="edgeStyle=orthogonalEdgeStyle;rounded=0;orthogonalLoop=1;jettySize=auto;html=1;exitX=0.5;exitY=1;exitDx=0;exitDy=0;entryX=0.5;entryY=0;entryDx=0;entryDy=0;" edge="1" parent="WIyWlLk6GJQsqaUBKTNV-1" source="CEonb_hu1AGd1APKylkn-89" target="CEonb_hu1AGd1APKylkn-90">
          <mxGeometry relative="1" as="geometry" />
        </mxCell>
        <mxCell id="CEonb_hu1AGd1APKylkn-89" value="Log in" style="rounded=1;whiteSpace=wrap;html=1;" vertex="1" parent="WIyWlLk6GJQsqaUBKTNV-1">
          <mxGeometry x="640" y="386" width="60" height="30" as="geometry" />
        </mxCell>
        <mxCell id="CEonb_hu1AGd1APKylkn-95" style="edgeStyle=orthogonalEdgeStyle;rounded=0;orthogonalLoop=1;jettySize=auto;html=1;exitX=0;exitY=0.5;exitDx=0;exitDy=0;entryX=0.5;entryY=0;entryDx=0;entryDy=0;" edge="1" parent="WIyWlLk6GJQsqaUBKTNV-1" source="CEonb_hu1AGd1APKylkn-90" target="CEonb_hu1AGd1APKylkn-92">
          <mxGeometry relative="1" as="geometry" />
        </mxCell>
        <mxCell id="CEonb_hu1AGd1APKylkn-96" style="edgeStyle=orthogonalEdgeStyle;rounded=0;orthogonalLoop=1;jettySize=auto;html=1;exitX=1;exitY=0.5;exitDx=0;exitDy=0;entryX=0.5;entryY=0;entryDx=0;entryDy=0;" edge="1" parent="WIyWlLk6GJQsqaUBKTNV-1" source="CEonb_hu1AGd1APKylkn-90" target="CEonb_hu1AGd1APKylkn-91">
          <mxGeometry relative="1" as="geometry" />
        </mxCell>
        <mxCell id="CEonb_hu1AGd1APKylkn-170" value="No" style="edgeLabel;html=1;align=center;verticalAlign=middle;resizable=0;points=[];" vertex="1" connectable="0" parent="CEonb_hu1AGd1APKylkn-96">
          <mxGeometry x="-0.1789" y="6" relative="1" as="geometry">
            <mxPoint x="-4" y="-6" as="offset" />
          </mxGeometry>
        </mxCell>
        <mxCell id="CEonb_hu1AGd1APKylkn-90" value="Credentials are valid" style="shape=hexagon;perimeter=hexagonPerimeter2;whiteSpace=wrap;html=1;fixedSize=1;" vertex="1" parent="WIyWlLk6GJQsqaUBKTNV-1">
          <mxGeometry x="630" y="430" width="80.5" height="40" as="geometry" />
        </mxCell>
        <mxCell id="CEonb_hu1AGd1APKylkn-100" style="edgeStyle=orthogonalEdgeStyle;rounded=0;orthogonalLoop=1;jettySize=auto;html=1;exitX=0.5;exitY=1;exitDx=0;exitDy=0;entryX=1;entryY=0.5;entryDx=0;entryDy=0;" edge="1" parent="WIyWlLk6GJQsqaUBKTNV-1" source="CEonb_hu1AGd1APKylkn-91" target="CEonb_hu1AGd1APKylkn-97">
          <mxGeometry relative="1" as="geometry" />
        </mxCell>
        <mxCell id="CEonb_hu1AGd1APKylkn-91" value="Display Error msg" style="rounded=1;whiteSpace=wrap;html=1;" vertex="1" parent="WIyWlLk6GJQsqaUBKTNV-1">
          <mxGeometry x="700" y="478" width="60" height="30" as="geometry" />
        </mxCell>
        <mxCell id="CEonb_hu1AGd1APKylkn-99" style="edgeStyle=orthogonalEdgeStyle;rounded=0;orthogonalLoop=1;jettySize=auto;html=1;exitX=0.5;exitY=1;exitDx=0;exitDy=0;entryX=0;entryY=0.5;entryDx=0;entryDy=0;" edge="1" parent="WIyWlLk6GJQsqaUBKTNV-1" source="CEonb_hu1AGd1APKylkn-92" target="CEonb_hu1AGd1APKylkn-97">
          <mxGeometry relative="1" as="geometry">
            <mxPoint x="610" y="530" as="targetPoint" />
          </mxGeometry>
        </mxCell>
        <mxCell id="CEonb_hu1AGd1APKylkn-92" value="Comment or Create New Post" style="rounded=1;whiteSpace=wrap;html=1;fontSize=12;glass=0;strokeWidth=1;shadow=0;" vertex="1" parent="WIyWlLk6GJQsqaUBKTNV-1">
          <mxGeometry x="560" y="478" width="95" height="29" as="geometry" />
        </mxCell>
        <mxCell id="CEonb_hu1AGd1APKylkn-107" style="edgeStyle=orthogonalEdgeStyle;rounded=0;orthogonalLoop=1;jettySize=auto;html=1;exitX=0.5;exitY=1;exitDx=0;exitDy=0;entryX=0.5;entryY=0;entryDx=0;entryDy=0;" edge="1" parent="WIyWlLk6GJQsqaUBKTNV-1" source="CEonb_hu1AGd1APKylkn-97" target="CEonb_hu1AGd1APKylkn-101">
          <mxGeometry relative="1" as="geometry">
            <Array as="points">
              <mxPoint x="553" y="544" />
            </Array>
          </mxGeometry>
        </mxCell>
        <mxCell id="CEonb_hu1AGd1APKylkn-97" value="" style="rhombus;whiteSpace=wrap;html=1;" vertex="1" parent="WIyWlLk6GJQsqaUBKTNV-1">
          <mxGeometry x="660" y="514" width="26" height="30" as="geometry" />
        </mxCell>
        <mxCell id="CEonb_hu1AGd1APKylkn-110" style="edgeStyle=orthogonalEdgeStyle;rounded=0;orthogonalLoop=1;jettySize=auto;html=1;exitX=0;exitY=0.5;exitDx=0;exitDy=0;entryX=1;entryY=0.5;entryDx=0;entryDy=0;" edge="1" parent="WIyWlLk6GJQsqaUBKTNV-1" source="CEonb_hu1AGd1APKylkn-101" target="CEonb_hu1AGd1APKylkn-108">
          <mxGeometry relative="1" as="geometry" />
        </mxCell>
        <mxCell id="CEonb_hu1AGd1APKylkn-101" value="" style="rhombus;whiteSpace=wrap;html=1;" vertex="1" parent="WIyWlLk6GJQsqaUBKTNV-1">
          <mxGeometry x="540" y="560" width="26" height="30" as="geometry" />
        </mxCell>
        <mxCell id="CEonb_hu1AGd1APKylkn-158" style="edgeStyle=orthogonalEdgeStyle;rounded=0;orthogonalLoop=1;jettySize=auto;html=1;exitX=0;exitY=0.5;exitDx=0;exitDy=0;entryX=1;entryY=0.5;entryDx=0;entryDy=0;" edge="1" parent="WIyWlLk6GJQsqaUBKTNV-1" source="CEonb_hu1AGd1APKylkn-108" target="CEonb_hu1AGd1APKylkn-144">
          <mxGeometry relative="1" as="geometry" />
        </mxCell>
        <mxCell id="CEonb_hu1AGd1APKylkn-108" value="" style="rhombus;whiteSpace=wrap;html=1;" vertex="1" parent="WIyWlLk6GJQsqaUBKTNV-1">
          <mxGeometry x="500" y="560" width="26" height="30" as="geometry" />
        </mxCell>
        <mxCell id="CEonb_hu1AGd1APKylkn-139" value="No" style="text;html=1;align=center;verticalAlign=middle;resizable=0;points=[];autosize=1;strokeColor=none;fillColor=none;" vertex="1" parent="WIyWlLk6GJQsqaUBKTNV-1">
          <mxGeometry x="480" y="288" width="40" height="30" as="geometry" />
        </mxCell>
        <mxCell id="CEonb_hu1AGd1APKylkn-143" style="edgeStyle=orthogonalEdgeStyle;rounded=0;orthogonalLoop=1;jettySize=auto;html=1;exitX=0.5;exitY=1;exitDx=0;exitDy=0;entryX=0.5;entryY=0;entryDx=0;entryDy=0;" edge="1" source="CEonb_hu1AGd1APKylkn-144" target="CEonb_hu1AGd1APKylkn-147" parent="WIyWlLk6GJQsqaUBKTNV-1">
          <mxGeometry relative="1" as="geometry" />
        </mxCell>
        <mxCell id="CEonb_hu1AGd1APKylkn-144" value="Register" style="rounded=1;whiteSpace=wrap;html=1;" vertex="1" parent="WIyWlLk6GJQsqaUBKTNV-1">
          <mxGeometry x="392.5" y="560" width="60" height="30" as="geometry" />
        </mxCell>
        <mxCell id="CEonb_hu1AGd1APKylkn-146" style="edgeStyle=orthogonalEdgeStyle;rounded=0;orthogonalLoop=1;jettySize=auto;html=1;exitX=1;exitY=0.5;exitDx=0;exitDy=0;entryX=0.5;entryY=0;entryDx=0;entryDy=0;" edge="1" source="CEonb_hu1AGd1APKylkn-147" target="CEonb_hu1AGd1APKylkn-149" parent="WIyWlLk6GJQsqaUBKTNV-1">
          <mxGeometry relative="1" as="geometry" />
        </mxCell>
        <mxCell id="CEonb_hu1AGd1APKylkn-153" style="edgeStyle=orthogonalEdgeStyle;rounded=0;orthogonalLoop=1;jettySize=auto;html=1;exitX=0;exitY=0.5;exitDx=0;exitDy=0;entryX=0.5;entryY=0;entryDx=0;entryDy=0;" edge="1" parent="WIyWlLk6GJQsqaUBKTNV-1" source="CEonb_hu1AGd1APKylkn-147" target="CEonb_hu1AGd1APKylkn-151">
          <mxGeometry relative="1" as="geometry" />
        </mxCell>
        <mxCell id="CEonb_hu1AGd1APKylkn-147" value="Successful?" style="shape=hexagon;perimeter=hexagonPerimeter2;whiteSpace=wrap;html=1;fixedSize=1;" vertex="1" parent="WIyWlLk6GJQsqaUBKTNV-1">
          <mxGeometry x="382.5" y="604" width="80.5" height="40" as="geometry" />
        </mxCell>
        <mxCell id="CEonb_hu1AGd1APKylkn-155" style="edgeStyle=orthogonalEdgeStyle;rounded=0;orthogonalLoop=1;jettySize=auto;html=1;exitX=0.5;exitY=1;exitDx=0;exitDy=0;entryX=1;entryY=0.5;entryDx=0;entryDy=0;" edge="1" parent="WIyWlLk6GJQsqaUBKTNV-1" source="CEonb_hu1AGd1APKylkn-149" target="CEonb_hu1AGd1APKylkn-154">
          <mxGeometry relative="1" as="geometry" />
        </mxCell>
        <mxCell id="CEonb_hu1AGd1APKylkn-149" value="Display Error msg" style="rounded=1;whiteSpace=wrap;html=1;" vertex="1" parent="WIyWlLk6GJQsqaUBKTNV-1">
          <mxGeometry x="452.5" y="652" width="60" height="30" as="geometry" />
        </mxCell>
        <mxCell id="CEonb_hu1AGd1APKylkn-152" value="" style="edgeStyle=orthogonalEdgeStyle;rounded=0;orthogonalLoop=1;jettySize=auto;html=1;exitX=0.5;exitY=1;exitDx=0;exitDy=0;entryX=0;entryY=0.5;entryDx=0;entryDy=0;" edge="1" parent="WIyWlLk6GJQsqaUBKTNV-1" target="CEonb_hu1AGd1APKylkn-151">
          <mxGeometry relative="1" as="geometry">
            <mxPoint x="412.5" y="703" as="targetPoint" />
            <mxPoint x="360.5" y="681" as="sourcePoint" />
          </mxGeometry>
        </mxCell>
        <mxCell id="CEonb_hu1AGd1APKylkn-156" style="edgeStyle=orthogonalEdgeStyle;rounded=0;orthogonalLoop=1;jettySize=auto;html=1;exitX=0.5;exitY=1;exitDx=0;exitDy=0;entryX=0;entryY=0.5;entryDx=0;entryDy=0;" edge="1" parent="WIyWlLk6GJQsqaUBKTNV-1" source="CEonb_hu1AGd1APKylkn-151" target="CEonb_hu1AGd1APKylkn-154">
          <mxGeometry relative="1" as="geometry" />
        </mxCell>
        <mxCell id="CEonb_hu1AGd1APKylkn-151" value="Display&lt;br&gt;Dashboard" style="rounded=1;whiteSpace=wrap;html=1;fontSize=12;glass=0;strokeWidth=1;shadow=0;" vertex="1" parent="WIyWlLk6GJQsqaUBKTNV-1">
          <mxGeometry x="314" y="653" width="95" height="29" as="geometry" />
        </mxCell>
        <mxCell id="CEonb_hu1AGd1APKylkn-163" style="edgeStyle=orthogonalEdgeStyle;rounded=0;orthogonalLoop=1;jettySize=auto;html=1;exitX=0.5;exitY=1;exitDx=0;exitDy=0;entryX=1;entryY=0.5;entryDx=0;entryDy=0;" edge="1" parent="WIyWlLk6GJQsqaUBKTNV-1" source="CEonb_hu1AGd1APKylkn-154" target="CEonb_hu1AGd1APKylkn-160">
          <mxGeometry relative="1" as="geometry" />
        </mxCell>
        <mxCell id="CEonb_hu1AGd1APKylkn-154" value="" style="rhombus;whiteSpace=wrap;html=1;" vertex="1" parent="WIyWlLk6GJQsqaUBKTNV-1">
          <mxGeometry x="415.5" y="690" width="26" height="30" as="geometry" />
        </mxCell>
        <mxCell id="CEonb_hu1AGd1APKylkn-166" style="edgeStyle=orthogonalEdgeStyle;rounded=0;orthogonalLoop=1;jettySize=auto;html=1;exitX=0.5;exitY=1;exitDx=0;exitDy=0;entryX=0.5;entryY=0;entryDx=0;entryDy=0;" edge="1" parent="WIyWlLk6GJQsqaUBKTNV-1" source="CEonb_hu1AGd1APKylkn-160" target="CEonb_hu1AGd1APKylkn-164">
          <mxGeometry relative="1" as="geometry" />
        </mxCell>
        <mxCell id="CEonb_hu1AGd1APKylkn-160" value="" style="rhombus;whiteSpace=wrap;html=1;" vertex="1" parent="WIyWlLk6GJQsqaUBKTNV-1">
          <mxGeometry x="188" y="690" width="26" height="30" as="geometry" />
        </mxCell>
        <mxCell id="CEonb_hu1AGd1APKylkn-164" value="END" style="ellipse;whiteSpace=wrap;html=1;" vertex="1" parent="WIyWlLk6GJQsqaUBKTNV-1">
          <mxGeometry x="175.5" y="740" width="55" height="30" as="geometry" />
        </mxCell>
        <mxCell id="CEonb_hu1AGd1APKylkn-168" value="&lt;font style=&quot;font-size: 24px;&quot;&gt;BLOG PLATFORM&lt;br&gt;WORKFLOW&lt;/font&gt;" style="text;html=1;strokeColor=none;fillColor=none;align=center;verticalAlign=middle;whiteSpace=wrap;rounded=0;" vertex="1" parent="WIyWlLk6GJQsqaUBKTNV-1">
          <mxGeometry x="136.63" y="60" width="100" height="30" as="geometry" />
        </mxCell>
        <mxCell id="CEonb_hu1AGd1APKylkn-169" value="Yes" style="text;html=1;align=center;verticalAlign=middle;resizable=0;points=[];autosize=1;strokeColor=none;fillColor=none;" vertex="1" parent="WIyWlLk6GJQsqaUBKTNV-1">
          <mxGeometry x="570" y="438" width="40" height="30" as="geometry" />
        </mxCell>
        <mxCell id="CEonb_hu1AGd1APKylkn-171" value="Yes" style="text;html=1;align=center;verticalAlign=middle;resizable=0;points=[];autosize=1;strokeColor=none;fillColor=none;" vertex="1" parent="WIyWlLk6GJQsqaUBKTNV-1">
          <mxGeometry x="330" y="608" width="40" height="30" as="geometry" />
        </mxCell>
        <mxCell id="CEonb_hu1AGd1APKylkn-172" value="No" style="text;html=1;align=center;verticalAlign=middle;resizable=0;points=[];autosize=1;strokeColor=none;fillColor=none;" vertex="1" parent="WIyWlLk6GJQsqaUBKTNV-1">
          <mxGeometry x="460" y="598" width="40" height="30" as="geometry" />
        </mxCell>
        <mxCell id="CEonb_hu1AGd1APKylkn-173" value="Yes" style="text;html=1;align=center;verticalAlign=middle;resizable=0;points=[];autosize=1;strokeColor=none;fillColor=none;" vertex="1" parent="WIyWlLk6GJQsqaUBKTNV-1">
          <mxGeometry x="310" y="118" width="40" height="30" as="geometry" />
        </mxCell>
        <mxCell id="CEonb_hu1AGd1APKylkn-179" style="edgeStyle=orthogonalEdgeStyle;rounded=0;orthogonalLoop=1;jettySize=auto;html=1;exitX=0.5;exitY=1;exitDx=0;exitDy=0;entryX=0.5;entryY=0;entryDx=0;entryDy=0;" edge="1" parent="WIyWlLk6GJQsqaUBKTNV-1" source="CEonb_hu1AGd1APKylkn-174" target="CEonb_hu1AGd1APKylkn-160">
          <mxGeometry relative="1" as="geometry" />
        </mxCell>
        <mxCell id="CEonb_hu1AGd1APKylkn-174" value="" style="rhombus;whiteSpace=wrap;html=1;" vertex="1" parent="WIyWlLk6GJQsqaUBKTNV-1">
          <mxGeometry x="186" y="610" width="26" height="30" as="geometry" />
        </mxCell>
      </root>
    </mxGraphModel>
  </diagram>
</mxfile>
